<?xml version="1.0" encoding="UTF-8" standalone="no"?>
<svg
   viewBox="0 0 113.26304 39.102627"
   version="1.1"
   id="svg2"
   width="113.26304"
   height="39.102627"
   xmlnsSodipodi="http://sodipodi.sourceforge.net/DTD/sodipodi-0.dtd"
   xmlns="http://www.w3.org/2000/svg"
   xmlnsSvg="http://www.w3.org/2000/svg">
  <defs
     id="defs2" />
  <path
     fill="#333333"
     d="m 8.3120364,27.514 c -0.671,-0.107 -2.39,-0.537 -3.813,-0.926 l -2.593,-0.726 1.33,-2.444 1.329,-2.444 -1.074,-1.33 C 1.9730364,17.764 0.01303638,13.642 3.6384398e-5,12.314 -0.01396362,9.211 4.0140364,4.713 8.9560364,2.296 12.353036,0.631 15.052036,0.591 18.436036,2.176 l 2.551,1.194 0.739,-1.06 c 0.402,-0.578 0.738,-1.343 0.738,-1.679 0,-0.336 0.336,-0.631 0.739,-0.631 0.403,0 0.738,0.107 0.738,0.228 0,0.296 -2.967,7.788 -3.155,7.976 -0.081,0.08 -0.887,-0.295 -1.8,-0.832 -2.578,-1.518 -5.814,-2.525 -8.325,-2.592 C 4.8200364,4.632 2.7920364,10.34 6.9150364,15.334 l 1.45,1.76 3.9609996,-3.21 c 4.445,-3.585 4.955,-3.666 8.42,-1.275 3.893,2.685 3.96,6.767 0.2,11.037 -3.33,3.8 -6.753,4.848 -12.6349996,3.867 z m 9.9639996,-4.095 c 1.933,-1.517 1.799,-4.324 -0.296,-6.553 -2.632,-2.793 -3.45,-2.672 -8.0829996,1.195 -4.606,3.84 -4.633,3.693 0.8729996,5.452 3.638,1.181 5.921,1.141 7.506,-0.094 z m 37.41,14.797 c -1.317,-0.483 -4.862,-1.947 -7.896,-3.263 -8.191,-3.572 -9.346,-3.639 -11.79,-0.671 -0.564,0.685 -1.181,1.114 -1.356,0.94 -0.524,-0.524 1.034,-3.035 2.914,-4.686 1.53,-1.343 2.04,-1.531 3.733,-1.343 1.074,0.12 4.646,1.37 7.935,2.766 7.426,3.155 9.601,3.827 12.435,3.827 3.45,0 5.223,-2.417 4.135,-5.626 -0.268,-0.806 -0.188,-1.075 0.35,-1.075 1.006,0 1.517,3.76 0.792,5.922 -0.31,0.926 -1.209,2.242 -2.001,2.9 -1.182,0.994 -1.934,1.209 -4.15,1.195 -1.49,-0.013 -3.786,-0.402 -5.102,-0.886 z m -19.135,-11.48 c -3.048,-1.424 -5.801,-4.136 -7.386,-7.305 -2.537,-5.076 -1.759,-8.325 3.049,-12.716 4.041,-3.693 7.345,-5.13 11.79,-5.13 3.208,0 3.893,0.175 5.974,1.45 4.928,3.049 6.15,8.863 3.183,15.2 -3.478,7.44 -10.823,11.186 -16.61,8.5 z m 10.205,-3.532 c 2.282,-1.128 3.854,-6.338 3.209,-10.662 -0.806,-5.33 -8.016,-8.97 -13.307,-6.713 -5.438,2.323 -5.519,8.513 -0.174,14.085 3.732,3.908 6.942,4.928 10.272,3.29 z m 10.353,4.512 c 0,-0.229 0.845,-0.631 1.893,-0.887 l 1.893,-0.47 0.403,-6.82 c 0.443,-7.547 0.12,-14.973 -0.698,-15.966 -0.296,-0.35 -1.195,-0.78 -2.014,-0.967 -3.33,-0.739 -1.115,-1.249 5.344,-1.249 6.459,0 8.513,0.47 5.438,1.249 -2.645,0.658 -2.659,0.698 -2.659,11.467 0,5.975 0.215,10.474 0.524,11.051 0.43,0.806 1.074,0.98 3.545,0.98 5.102,0 6.861,-1.208 8.245,-5.68 0.416,-1.342 1.49,-1.1 1.114,0.256 -0.175,0.63 -0.456,2.55 -0.631,4.296 l -0.322,3.156 h -11.038 c -6.07,0 -11.037,-0.188 -11.037,-0.416 z"
     id="path1" />
  <path
     fill="#ca2727"
     d="m 82.178036,27.393 c 0,-0.402 0.39,-0.805 1.034,-1.114 0.86,-0.403 1.423,-1.249 3.464,-5.237 3.236,-6.31 8.339,-17.147 8.822,-18.772 0.376,-1.235 0.457,-1.302 1.853,-1.463 0.806,-0.094 1.477,-0.148 1.49,-0.121 0.014,0.027 1.129,2.47 2.485004,5.438 1.343,2.967 4.042,8.607 6.002,12.528 3.277,6.593 3.64,7.184 4.74,7.72 0.672,0.323 1.195,0.82 1.195,1.115 0,0.47 -0.577,0.524 -5.545,0.524 -4.982,0 -5.546,-0.054 -5.546,-0.537 0,-0.322 0.43,-0.671 1.114,-0.9 0.632,-0.201 1.115,-0.577 1.115,-0.859 0,-0.269 -0.658,-2.041 -1.464,-3.934 l -1.463,-3.451 H 90.382036 l -1.06,2.336 c -1.988,4.378 -2.028,5.412 -0.175,5.908 0.927,0.255 1.182,0.457 1.074,0.873 -0.12,0.484 -0.604,0.55 -4.095,0.55 -3.747,0.028 -3.948,0 -3.948,-0.604 z M 100.35904,16.53 c 0.188,-0.335 -3.988004,-9.453 -4.377004,-9.547 -0.282,-0.08 -4.606,8.836 -4.606,9.507 0,0.336 8.782004,0.376 8.983004,0.04 z"
     id="path2"
     style="fill:#000000" />
  <path
     style="fill:#000000;stroke-width:0.157442"
     d="m 62.918535,27.975939 c -2.865904,-0.05858 -5.303075,-0.163574 -5.415935,-0.233326 -0.298464,-0.18446 0.616925,-0.606427 2.046105,-0.943194 0.649447,-0.153032 1.233311,-0.32523 1.297476,-0.382662 0.160996,-0.144098 0.56961,-6.868637 0.689593,-11.348582 C 61.636733,11.298528 61.444124,6.76633 61.101047,4.838713 60.853256,3.446478 60.46221,3.082227 58.624901,2.532238 57.8341,2.295516 57.187082,2.051878 57.187082,1.990821 c 0,-0.216937 0.746641,-0.310642 3.804867,-0.477519 2.19522,-0.119785 3.936428,-0.120239 5.982779,-0.0016 4.114816,0.238642 4.429924,0.3814 2.285568,1.035469 -0.720126,0.219652 -1.462424,0.542005 -1.64955,0.71634 -0.187127,0.174335 -0.46583,0.723096 -0.61934,1.21947 -0.253463,0.819571 -0.277927,1.69092 -0.266246,9.483063 0.01417,9.452028 0.113774,10.982949 0.756381,11.625556 0.307482,0.307482 0.621674,0.400436 1.734888,0.513271 1.452865,0.147263 4.442275,-0.03638 5.525388,-0.339439 1.961878,-0.548933 3.204245,-1.942614 4.112716,-4.613626 0.396562,-1.165946 0.611687,-1.517866 0.927848,-1.517866 0.3435,0 0.385424,0.422876 0.159531,1.609178 -0.120025,0.630328 -0.331898,2.20878 -0.470827,3.507673 -0.13893,1.298893 -0.28889,2.591882 -0.333246,2.873309 l -0.08065,0.511685 -5.463959,-0.02669 C 70.588051,28.094415 65.784438,28.034475 62.918533,27.9759 Z"
     id="path3" />
  <path
     style="fill:#000000;stroke-width:0.157442"
     d="m 38.1512,27.183318 c -3.556439,-0.931309 -7.165212,-4.199959 -9.065152,-8.21077 -0.97396,-2.056051 -1.23234,-3.164961 -1.154126,-4.95326 0.05863,-1.340507 0.116849,-1.56082 0.729971,-2.762326 0.749886,-1.469515 2.047583,-3.034941 3.89475,-4.698276 2.475369,-2.229017 4.709997,-3.566767 7.267492,-4.35065 1.28709,-0.394499 1.589326,-0.424469 4.374017,-0.433728 2.860069,-0.0095 3.032916,0.0076 3.937357,0.38935 3.272621,1.381388 5.629547,4.14107 6.31495,7.394062 0.848062,4.024993 -1.036137,9.534965 -4.550828,13.307999 -1.515492,1.626886 -2.805486,2.614783 -4.441947,3.401706 -2.529919,1.216559 -4.983699,1.52415 -7.306484,0.915893 z M 46.068688,23.5649 c 0.509237,-0.19129 1.189449,-0.585913 1.511581,-0.87694 1.005537,-0.908443 1.963992,-3.0963 2.372463,-5.415603 0.242629,-1.377647 0.238084,-4.166612 -0.0085,-5.212166 C 49.295494,9.309374 46.820691,6.791535 43.689745,5.696942 42.054488,5.125248 39.147825,4.971351 37.72786,5.381282 c -6.520082,1.882289 -7.040815,8.73462 -1.122548,14.771626 3.413591,3.482078 6.405293,4.560728 9.463369,3.411992 z"
     id="path4" />
  <path
     style="fill:#000000;stroke-width:0.157442"
     d="m 58.131731,38.741999 c -1.602314,-0.291649 -3.129529,-0.848244 -8.02952,-2.926371 -7.794626,-3.305764 -9.422812,-3.855258 -10.954862,-3.697137 -1.117938,0.115382 -1.548487,0.371875 -2.824505,1.682658 -0.604374,0.62084 -1.233442,1.202381 -1.397929,1.292313 -0.275044,0.150379 -0.29159,0.117444 -0.205992,-0.410034 0.208515,-1.284925 2.820396,-4.343968 4.394749,-5.147143 1.424689,-0.726822 3.632502,-0.140879 11.13586,2.955404 6.801172,2.806523 9.176501,3.477939 11.739518,3.318315 1.454353,-0.09058 2.301071,-0.398443 3.049975,-1.108972 1.077168,-1.021972 1.381536,-2.50671 0.891403,-4.348361 -0.248224,-0.932695 -0.21194,-1.114755 0.222177,-1.114755 0.693015,0 1.248107,2.624566 0.953543,4.508518 -0.305996,1.957067 -1.559213,3.816479 -3.169963,4.703311 -0.782208,0.430661 -0.979677,0.467881 -2.655623,0.500547 -1.107437,0.02159 -2.330291,-0.0593 -3.148831,-0.208293 z"
     id="path5" />
  <path
     style="fill:#000000;stroke-width:0.157442"
     d="M 10.426934,27.720709 C 8.8301774,27.571413 2.7677824,26.179127 2.2079737,25.833146 c -0.068043,-0.04205 0.2692071,-0.798718 0.7494437,-1.681477 0.480236,-0.882761 1.058094,-1.970243 1.284129,-2.416628 l 0.410971,-0.811608 -0.803404,-1.009651 C 2.3081144,17.977183 0.64709508,14.785891 0.20064288,12.90403 0.02655148,12.17021 0.04084418,11.959591 0.32885118,11.014732 1.415108,7.451069 6.5913294,2.93458 11.220923,1.510903 c 0.854292,-0.262709 1.559933,-0.361034 2.591005,-0.361034 1.695647,0 2.941363,0.344215 5.383991,1.4877 0.916315,0.428961 1.718685,0.779929 1.783042,0.779929 0.193625,0 1.384374,-1.932676 1.503531,-2.440344 0.158141,-0.673755 0.355878,-0.865929 0.890996,-0.865929 0.434196,0 0.461825,0.03308 0.361612,0.432964 C 23.523455,1.388725 20.777705,8.153402 20.664953,8.108082 20.601933,8.082752 19.530159,7.55056 18.283239,6.925437 11.940241,3.74548 6.9863494,4.000952 5.2148524,7.599373 c -0.443953,0.901798 -0.502565,1.17394 -0.498939,2.316659 0.0047,1.473997 0.398163,2.849969 1.180703,4.128772 0.559748,0.914724 2.290706,3.070111 2.465558,3.070111 0.06556,0 1.531117,-1.132781 3.2567986,-2.517292 3.552416,-2.850096 4.554767,-3.465488 5.644581,-3.465488 1.177561,0 3.573692,1.394612 4.879524,2.84001 1.006217,1.113762 1.431764,2.219786 1.421208,3.693816 -0.01454,2.030637 -0.980236,4.016706 -3.025453,6.222202 -1.793053,1.933572 -3.45224,2.996603 -5.508946,3.529549 -1.016785,0.263476 -3.369351,0.418337 -4.602953,0.302997 z m 7.00615,-3.747537 c 1.56745,-0.709556 2.196518,-1.679725 2.201057,-3.394542 0.0038,-1.451964 -0.471051,-2.536552 -1.700933,-3.884677 -1.650126,-1.808776 -2.85948,-2.185051 -4.459756,-1.3876 -0.899615,0.448297 -4.4228716,3.222918 -5.9606526,4.694109 -1.736489,1.661295 -1.479043,2.043243 2.183033,3.23877 2.0847406,0.680588 2.9338656,0.895047 4.6671406,1.178751 0.772466,0.126438 2.295717,-0.09426 3.070111,-0.444811 z"
     id="path6" />
</svg>
