<?xml version="1.0" encoding="UTF-8" standalone="no"?>
<svg
   viewBox="0 0 87 87"
   version="1.1"
   id="svg4"
   xmlnsSodipodi="http://sodipodi.sourceforge.net/DTD/sodipodi-0.dtd"
   xmlns="http://www.w3.org/2000/svg"
   xmlnsSvg="http://www.w3.org/2000/svg">
  <defs
     id="defs1">
    <style
       id="style1">.cls-1{fill:#494949;}.cls-2{fill:#fff;}</style>
  </defs>
  <title
     id="title1">Asset 19expressjs-logo</title>
  <g
     id="Layer_2"
     data-name="Layer 2">
    <g
       id="Layer_1-2"
       data-name="Layer 1">
      <path
         class="cls-1"
         d="M23.72,44.33c.1,6.33,4.1,8.94,8.84,8.94a16.67,16.67,0,0,0,7.13-1.33l.8,3.36A20.58,20.58,0,0,1,31.92,57C24,57,19.24,51.67,19.24,44s4.58-13.9,12.14-13.9c8.37,0,10.6,7.35,10.6,12.09a10.15,10.15,0,0,1-.21,2.19ZM37.46,41c0-2.93-1.23-7.56-6.5-7.56-4.74,0-6.82,4.31-7.19,7.56Z"
         id="path3" />
      <path
         class="cls-1"
         d="M49.81,30.64l3.67,5.48c1,1.44,1.76,2.77,2.61,4.16h.11c.85-1.44,1.76-2.82,2.61-4.21l3.57-5.43h5.11L58.7,43.05l9.06,13.31H62.48l-3.83-5.75c-1-1.55-1.86-3-2.77-4.53h-.11c-.85,1.6-1.75,2.93-2.71,4.53l-3.73,5.75H44.17l9.16-13.15L44.59,30.64Z"
         id="path4" />
      <path
         style="fill:#000000;stroke-width:0.107011"
         d="M 41.520295,86.885237 C 33.285482,86.515958 25.153618,83.722959 18.433372,78.955722 14.556724,76.20569 10.757316,72.393238 7.9471518,68.433503 3.2664523,61.838043 0.41977888,53.46587 0.1242987,45.426199 -0.11246235,38.984208 0.82133932,33.404399 3.1179928,27.537775 6.0248204,20.112508 11.147154,13.454772 17.726757,8.5500783 24.490281,3.5082839 33.12936,0.45469999 41.573801,0.12106136 49.111839,-0.17676547 56.181475,1.3160069 62.79076,4.6010789 c 6.149848,3.0567136 11.490204,7.5330561 15.659161,13.1256781 5.036682,6.756664 8.120956,15.485442 8.426246,23.847044 0.289103,7.918257 -1.300593,15.108591 -4.855589,21.962245 -3.129916,6.034145 -7.84682,11.442067 -13.441927,15.411147 -6.545591,4.643339 -14.959321,7.595861 -22.498616,7.895152 -0.771602,0.03063 -1.715921,0.07063 -2.098485,0.08888 -0.382565,0.01825 -1.490129,-0.0024 -2.461255,-0.04599 z m 6.902214,-5.388669 C 59.486171,79.960926 69.001862,74.105789 75.154882,65.047766 78.591686,59.988357 80.647,54.598473 81.494559,48.422509 81.732972,46.685243 81.821552,42.172089 81.655821,40.206144 80.691023,28.761418 74.576886,18.320375 65.047766,11.844759 60.028422,8.4338089 54.599656,6.3577051 48.476015,5.5072818 46.777461,5.2713944 42.155287,5.1798504 40.212664,5.3436228 22.840288,6.8081966 8.5631949,19.988551 5.7303394,37.177081 5.3570846,39.441829 5.2442737,40.909312 5.2442737,43.5 c 0,2.590688 0.1128109,4.058171 0.4860657,6.322919 1.9856988,12.048354 9.6793506,22.448947 20.6886246,27.967726 4.191458,2.101116 8.747662,3.372 13.977715,3.898874 1.127252,0.113559 6.800139,-0.02282 8.02583,-0.192951 z"
         id="path5" />
      <path
         style="fill:#000000;stroke-width:0.107011"
         d="m 29.535055,56.771859 c -2.754637,-0.455294 -4.859761,-1.488016 -6.647476,-3.261089 -1.372086,-1.360848 -2.244977,-2.805886 -2.862965,-4.73953 -1.02106,-3.194833 -0.96817,-6.849682 0.14775,-10.209942 1.369778,-4.124678 4.27682,-6.99258 8.139703,-8.030109 0.964883,-0.259157 1.244308,-0.285863 3.042177,-0.290752 1.746452,-0.0047 2.086867,0.0238 2.889245,0.242273 4.361915,1.187698 7.025663,4.772145 7.606043,10.235002 0.115591,1.088005 0.07744,2.770959 -0.0758,3.344096 l -0.06438,0.240775 h -9.042528 -9.042526 l 0.07425,0.829336 c 0.32128,3.588454 1.744404,5.920514 4.391853,7.196886 1.532368,0.738775 2.135171,0.868378 4.340107,0.933118 2.574644,0.0756 4.507928,-0.212839 6.531304,-0.974436 l 0.699528,-0.263302 0.352949,1.512363 c 0.194121,0.831799 0.372688,1.5638 0.396812,1.626667 0.08922,0.232514 -2.755634,1.133772 -4.759074,1.507686 -1.293308,0.241377 -4.906595,0.301013 -6.116977,0.100958 z m 7.936382,-16.428686 c -0.05276,-1.021069 -0.281059,-2.109658 -0.631943,-3.013296 -0.811978,-2.091104 -2.255331,-3.34888 -4.33037,-3.773598 -3.857312,-0.789514 -7.057671,1.306715 -8.366577,5.480093 -0.152993,0.48781 -0.309123,1.150297 -0.346956,1.472194 l -0.06879,0.585268 6.890287,-0.02754 6.890288,-0.02755 z"
         id="path6" />
      <path
         style="fill:#000000;stroke-width:0.107011"
         d="m 44.764722,55.619004 c 0.260125,-0.367851 2.31285,-3.311511 4.561613,-6.541469 l 4.088659,-5.872649 -0.313724,-0.441004 c -0.172548,-0.242552 -2.084834,-2.993218 -4.249526,-6.11259 -2.164692,-3.119373 -3.983395,-5.731781 -4.041563,-5.805351 -0.084,-0.106244 0.419807,-0.133202 2.448856,-0.131033 l 2.554616,0.0027 2.247233,3.378998 c 1.235977,1.858449 2.632472,4.009009 3.103321,4.779023 0.470848,0.770013 0.904243,1.413549 0.963099,1.43008 0.05886,0.01653 0.682372,-0.895269 1.385591,-2.026219 0.70322,-1.130951 2.092987,-3.296265 3.088372,-4.811809 l 1.809792,-2.755535 h 2.461758 2.461759 l -0.183805,0.280521 c -0.101092,0.154287 -2.058053,2.925943 -4.348801,6.159236 -2.494675,3.521125 -4.134371,5.929913 -4.088628,6.006379 0.119655,0.200023 8.71991,12.845781 8.838278,12.995746 0.08385,0.106233 -0.426226,0.133764 -2.478298,0.133764 h -2.583879 l -2.190881,-3.318048 c -1.204985,-1.824928 -2.684621,-4.136036 -3.28808,-5.135797 -0.60346,-0.99976 -1.135556,-1.818078 -1.182435,-1.818483 -0.04688,-4.04e-4 -0.167267,0.148871 -0.267528,0.331722 -0.492592,0.898367 -2.809543,4.624361 -4.434652,7.131565 l -1.820752,2.809041 h -2.506674 -2.506674 z"
         id="path7" />
    </g>
  </g>
</svg>
